<svg width="512" height="512" viewBox="0 0 512 512" fill="none" xmlns="http://www.w3.org/2000/svg">
  <rect width="512" height="512" rx="112" fill="#07111F"/>
  <rect x="44" y="44" width="424" height="424" rx="92" fill="url(#bg)"/>
  <path d="M154 132C154 119.85 163.85 110 176 110H336C348.15 110 358 119.85 358 132V166H154V132Z" fill="#F5C542"/>
  <path d="M170 184H238V362C238 374.15 228.15 384 216 384H192C179.85 384 170 374.15 170 362V184Z" fill="#F5C542"/>
  <path d="M274 184H342V362C342 374.15 332.15 384 320 384H296C283.85 384 274 374.15 274 362V184Z" fill="#F5C542"/>
  <rect x="154" y="384" width="204" height="28" rx="14" fill="#F5C542"/>
  <path d="M382 120L410 148L286 272L246 232L382 120Z" fill="#62E7FF"/>
  <circle cx="394" cy="138" r="30" fill="#0D2237" stroke="#62E7FF" stroke-width="12"/>
  <defs>
    <linearGradient id="bg" x1="68" y1="52" x2="462" y2="460" gradientUnits="userSpaceOnUse">
      <stop stop-color="#0E2238"/>
      <stop offset="1" stop-color="#081321"/>
    </linearGradient>
  </defs>
</svg>
