<svg xmlns="http://www.w3.org/2000/svg" viewBox="0 0 480 720" fill="none">
  <rect width="480" height="720" fill="#1A1121"/>
  <rect x="48" y="48" width="384" height="624" rx="32" fill="url(#card)"/>
  <circle cx="240" cy="214" r="104" fill="#D9A47F"/>
  <path d="M143 210c17-72 75-119 142-119 75 0 120 45 132 129-25-25-56-37-103-37-79 0-117 32-171 27Z" fill="#2A1D24"/>
  <path d="M160 336c22 81 61 128 90 163 18 22 33 33 48 33 16 0 34-17 56-45 29-37 60-86 72-151-29 18-52 28-83 28-69 0-121-18-183-28Z" fill="#B7A6F7"/>
  <path d="M107 672c10-112 38-170 86-193 34 32 76 48 126 42 37-5 65-22 88-49 42 28 60 93 68 200H107Z" fill="url(#suit)"/>
  <rect x="204" y="545" width="72" height="127" rx="18" fill="#F7F1E8"/>
  <path d="M187 672l53-127 53 127H187Z" fill="#D4D8E8"/>
  <circle cx="201" cy="234" r="11" fill="#2A1D24"/>
  <circle cx="284" cy="234" r="11" fill="#2A1D24"/>
  <path d="M210 286c18 10 40 12 59-4" stroke="#934C48" stroke-linecap="round" stroke-width="10"/>
  <path d="M170 193c18-14 39-20 61-16" stroke="#2A1D24" stroke-linecap="round" stroke-width="10"/>
  <path d="M252 177c23-3 44 4 61 20" stroke="#2A1D24" stroke-linecap="round" stroke-width="10"/>
  <defs>
    <linearGradient id="card" x1="48" x2="432" y1="48" y2="672" gradientUnits="userSpaceOnUse">
      <stop stop-color="#44255B"/>
      <stop offset="1" stop-color="#18111F"/>
    </linearGradient>
    <linearGradient id="suit" x1="107" x2="475" y1="479" y2="672" gradientUnits="userSpaceOnUse">
      <stop stop-color="#7C2D12"/>
      <stop offset="1" stop-color="#431407"/>
    </linearGradient>
  </defs>
</svg>
