<svg xmlns="http://www.w3.org/2000/svg" viewBox="0 0 1600 900" fill="none">
  <rect width="1600" height="900" fill="#07131C"/>
  <path d="M0 0h1600v493H0z" fill="url(#sky)"/>
  <path d="M0 493h1600v407H0z" fill="#0E2A2A"/>
  <path d="M0 565h1600v335H0z" fill="#102D2C"/>
  <path d="M123 561h218v183H123z" fill="#1C3D4C"/>
  <path d="M382 515h218v229H382z" fill="#204652"/>
  <path d="M643 547h252v197H643z" fill="#193743"/>
  <path d="M947 501h231v243H947z" fill="#204652"/>
  <path d="M1215 548h262v196h-262z" fill="#1C3D4C"/>
  <path d="M0 744h1600v156H0z" fill="#1F2937"/>
  <path d="M0 794h1600v106H0z" fill="#0F172A"/>
  <circle cx="254" cy="176" r="101" fill="#67E8F9" fill-opacity=".08"/>
  <circle cx="1328" cy="121" r="121" fill="#FDE68A" fill-opacity=".08"/>
  <defs>
    <linearGradient id="sky" x1="800" x2="800" y1="0" y2="493" gradientUnits="userSpaceOnUse">
      <stop stop-color="#17314A"/>
      <stop offset=".7" stop-color="#0B2230"/>
      <stop offset="1" stop-color="#07131C"/>
    </linearGradient>
  </defs>
</svg>
