<svg xmlns="http://www.w3.org/2000/svg" viewBox="0 0 1600 900" fill="none">
  <rect width="1600" height="900" fill="#0A1324"/>
  <rect y="607" width="1600" height="293" fill="#111827"/>
  <path d="M0 561h1600v46H0z" fill="#1E293B"/>
  <path d="M147 215h1306v274H147z" fill="url(#wall)"/>
  <path d="M208 253h1184v199H208z" fill="#0F1F36"/>
  <path d="M285 310h210v179H285z" fill="#2A4365"/>
  <path d="M544 310h210v179H544z" fill="#2A4365"/>
  <path d="M803 310h210v179H803z" fill="#2A4365"/>
  <path d="M1062 310h210v179H1062z" fill="#2A4365"/>
  <path d="M512 510h576v130H512z" fill="#5B3A29"/>
  <path d="M562 542h476v72H562z" fill="#7C5138"/>
  <circle cx="319" cy="132" r="82" fill="#22C55E" fill-opacity=".08"/>
  <circle cx="1292" cy="174" r="94" fill="#38BDF8" fill-opacity=".08"/>
  <defs>
    <linearGradient id="wall" x1="800" x2="800" y1="215" y2="489" gradientUnits="userSpaceOnUse">
      <stop stop-color="#1E3A5F"/>
      <stop offset="1" stop-color="#0B1628"/>
    </linearGradient>
  </defs>
</svg>
